<svg xmlns="http://www.w3.org/2000/svg" width="16" height="16" viewBox="0 0 16 16"><title>16 settings wheel</title><g fill="#FFFFFF" class="nc-icon-wrapper"><line x1="5.25" y1="3.236" x2="8" y2="8" fill="none" stroke="#FFFFFF" stroke-linecap="round" stroke-linejoin="round" data-color="color-2"></line><line x1="5.25" y1="12.764" x2="8" y2="8" fill="none" stroke="#FFFFFF" stroke-linecap="round" stroke-linejoin="round" data-color="color-2"></line><line x1="13.5" y1="8" x2="8" y2="8" fill="none" stroke="#FFFFFF" stroke-linecap="round" stroke-linejoin="round" data-color="color-2"></line><circle cx="8" cy="8" r="5.5" fill="none" stroke="#FFFFFF" stroke-linecap="round" stroke-linejoin="round"></circle><line x1="8" y1=".5" x2="8" y2="2.5" fill="none" stroke="#FFFFFF" stroke-linecap="round" stroke-linejoin="round"></line><line x1="4.25" y1="1.505" x2="5.25" y2="3.236" fill="none" stroke="#FFFFFF" stroke-linecap="round" stroke-linejoin="round"></line><line x1="1.505" y1="4.25" x2="3.237" y2="5.25" fill="none" stroke="#FFFFFF" stroke-linecap="round" stroke-linejoin="round"></line><line x1=".5" y1="8" x2="2.5" y2="8" fill="none" stroke="#FFFFFF" stroke-linecap="round" stroke-linejoin="round"></line><line x1="1.505" y1="11.75" x2="3.237" y2="10.75" fill="none" stroke="#FFFFFF" stroke-linecap="round" stroke-linejoin="round"></line><line x1="4.25" y1="14.495" x2="5.25" y2="12.764" fill="none" stroke="#FFFFFF" stroke-linecap="round" stroke-linejoin="round"></line><line x1="8" y1="15.5" x2="8" y2="13.5" fill="none" stroke="#FFFFFF" stroke-linecap="round" stroke-linejoin="round"></line><line x1="11.75" y1="14.495" x2="10.75" y2="12.763" fill="none" stroke="#FFFFFF" stroke-linecap="round" stroke-linejoin="round"></line><line x1="14.495" y1="11.75" x2="12.763" y2="10.75" fill="none" stroke="#FFFFFF" stroke-linecap="round" stroke-linejoin="round"></line><line x1="15.5" y1="8" x2="13.5" y2="8" fill="none" stroke="#FFFFFF" stroke-linecap="round" stroke-linejoin="round"></line><line x1="14.495" y1="4.25" x2="12.763" y2="5.25" fill="none" stroke="#FFFFFF" stroke-linecap="round" stroke-linejoin="round"></line><line x1="11.75" y1="1.505" x2="10.75" y2="3.237" fill="none" stroke="#FFFFFF" stroke-linecap="round" stroke-linejoin="round"></line></g></svg>